<svg width="100%" viewBox="0 0 1540 450" xmlns="http://www.w3.org/2000/svg" font-family="'Segoe UI', Arial, sans-serif" font-size="14">
    <rect x="0" y="0" width="1540" height="450" fill="#f8f9fa"/>
    <rect x="10" y="10" width="1520" height="430" fill="none" stroke="#e2e8f0"/>
    <text x="770" y="40" text-anchor="middle" font-size="18" font-weight="bold" fill="#334155">Architecture Diagram</text>
    
    <!-- User Environment -->
    <g>
        <rect x="30" y="150" width="220" height="120" fill="#ffffff" stroke="#cbd5e1" rx="8"/>
        <text x="140" y="175" text-anchor="middle" font-weight="bold" fill="#334155">User Environment</text>
        <rect x="50" y="190" width="180" height="60" fill="#fefce8" stroke="#fbbf24" stroke-width="1.5" rx="4"/>
        <text x="140" y="223" text-anchor="middle" fill="#334155">User via Browser HTTPS</text>
    </g>

    <!-- Arrow to Gateway -->
    <g>
        <line x1="250" y1="220" x2="360" y2="220" stroke="#718096" stroke-width="1.5"/>
        <path d="M 360 220 l -10 -5 v 10 z" fill="#718096"/>
        <text x="305" y="215" text-anchor="middle" fill="#334155" font-size="12">Provides Data Context</text>
    </g>

    <!-- Gateway -->
    <g>
        <circle cx="400" cy="220" r="30" fill="#f1f3f4" stroke="#70757a" stroke-width="1.5"/>
        <text x="400" y="224" text-anchor="middle" fill="#334155">Gateway</text>
    </g>

    <!-- Data Quality Bot Section -->
    <g>
        <rect x="490" y="70" width="1030" height="310" fill="#ffffff" stroke="#cbd5e1" rx="8"/>
        <text x="1005" y="95" text-anchor="middle" font-weight="bold" fill="#334155">Data Quality Bot</text>
        
        <line x1="430" y1="220" x2="510" y2="220" stroke="#718096" stroke-width="1.5"/>
        <path d="M 510 220 l -10 -5 v 10 z" fill="#718096"/>

        <!-- Ingest -->
        <g>
            <rect x="510" y="150" width="180" height="120" fill="#f8f9fa" stroke="#e2e8f0" rx="4"/>
            <text x="600" y="175" text-anchor="middle" font-weight="bold" fill="#334155">Ingest</text>
            <rect x="520" y="190" width="160" height="60" fill="#e9f3fd" stroke="#4285f4" stroke-width="1.5" rx="4"/>
            <text x="600" y="223" text-anchor="middle" fill="#334155">Data Input and Parsing</text>
        </g>
        
        <line x1="690" y1="220" x2="730" y2="220" stroke="#718096" stroke-width="1.5"/>
        <path d="M 730 220 l -10 -5 v 10 z" fill="#718096"/>
        
        <!-- Pipelines -->
        <g>
            <rect x="730" y="150" width="180" height="120" fill="#f8f9fa" stroke="#e2e8f0" rx="4"/>
            <text x="820" y="175" text-anchor="middle" font-weight="bold" fill="#334155">Pipelines</text>
            <rect x="740" y="190" width="160" height="60" fill="#e9f3fd" stroke="#4285f4" stroke-width="1.5" rx="4"/>
            <text x="820" y="223" text-anchor="middle" fill="#334155">Prompt Engineering</text>
        </g>
        
        <!-- Arrow to Analytics -->
        <g>
            <line x1="910" y1="220" x2="950" y2="220" stroke="#718096" stroke-width="1.5"/>
            <path d="M 950 220 l -10 -5 v 10 z" fill="#718096"/>
            <text x="930" y="215" text-anchor="middle" fill="#334155" font-size="12">Secure API Call</text>
        </g>
        
        <!-- Analytics -->
        <g>
            <rect x="950" y="150" width="180" height="120" fill="#f8f9fa" stroke="#e2e8f0" rx="4"/>
            <text x="1040" y="175" text-anchor="middle" font-weight="bold" fill="#334155">Analytics</text>
            <rect x="960" y="190" width="160" height="60" fill="#e6f4ea" stroke="#34a853" stroke-width="1.5" rx="4"/>
            <text x="1040" y="223" text-anchor="middle" fill="#334155">Google Gemini API</text>
        </g>
        
        <!-- Arrow to Presentation -->
        <g>
            <line x1="1130" y1="220" x2="1170" y2="220" stroke="#718096" stroke-width="1.5"/>
            <path d="M 1170 220 l -10 -5 v 10 z" fill="#718096"/>
            <text x="1150" y="215" text-anchor="middle" fill="#334155" font-size="12">JSON Response</text>
        </g>
        
        <!-- Presentation -->
        <g>
            <rect x="1170" y="80" width="340" height="290" fill="#f8f9fa" stroke="#e2e8f0" rx="4"/>
            <text x="1340" y="105" text-anchor="middle" font-weight="bold" fill="#334155">Presentation</text>
            
            <rect x="1180" y="180" width="140" height="60" fill="#fce8e6" stroke="#ea4335" stroke-width="1.5" rx="4"/>
            <text x="1250" y="213" text-anchor="middle" fill="#334155">Results Dashboard</text>
            
            <rect x="1360" y="110" width="140" height="60" fill="#fce8e6" stroke="#ea4335" stroke-width="1.5" rx="4"/>
            <text x="1430" y="143" text-anchor="middle" fill="#334155">AI Assistant</text>
            
            <rect x="1360" y="250" width="140" height="60" fill="#fce8e6" stroke="#ea4335" stroke-width="1.5" rx="4"/>
            <text x="1430" y="283" text-anchor="middle" fill="#334155">Export Engine</text>
            
            <!-- Arrow from Dashboard to AI Assistant -->
            <path d="M 1320 210 L 1340 210 L 1340 140 L 1360 140" stroke="#718096" stroke-width="1.5" fill="none"/>
            <path d="M 1360 140 l -10 -5 v 10 z" fill="#718096"/>
            
            <!-- Arrow from Dashboard to Export Engine -->
            <path d="M 1320 210 L 1340 210 L 1340 280 L 1360 280" stroke="#718096" stroke-width="1.5" fill="none"/>
            <path d="M 1360 280 l -10 -5 v 10 z" fill="#718096"/>
        </g>
    </g>
</svg>